# xmcd
#
# Track frame offsets:
#	150
#	15302
#	28567
#	41243
#	56537
#	70777
#	85900
#	100675
#	114557
#	128116
#	142189
#	155277
#
# Disc length: 2222 seconds
#
# Revision: 1
# Processed by: cddbd v1.5.2PL0 Copyright (c) Steve Scherf et al.
# Submitted via: audiograbber 1.83.01
#
DISCID=9808ac0c
DTITLE=Various Artist - Sierra Madre - Die Superhits der Volksmusik - CD 02
DYEAR=1900
DGENRE=Folk
TTITLE0=Nockalm Quintett - Vom Winde verweht
TTITLE1=Judith and Mel - Das Glück zu zweit
TTITLE2=Zellberg Buam - S'kloane Kircherl
TTITLE3=Stefanie Hertel - Bitte lächeln
TTITLE4=Wolfgang Herrmann - Samma a schon grau
TTITLE5=Bergfeuer - Tausendbergeland
TTITLE6=Florian Silbereisen - Mein Madl aus dem Internet
TTITLE7=Diana  - Ola La
TTITLE8=Wolfgang Edenharder - Schäm' dich deiner Tränen nicht
TTITLE9=Axel Becker - Bring ein bisschen Liebe mit
TTITLE10=Margitta and ihre Töchter - Liebe trocknet alle Tränen
TTITLE11=Orig- Oberkrainer Sextett - Mit besten Wünschen
EXTD=
EXTT0=
EXTT1=
EXTT2=
EXTT3=
EXTT4=
EXTT5=
EXTT6=
EXTT7=
EXTT8=
EXTT9=
EXTT10=
EXTT11=
PLAYORDER=
